<?xml version="1.0" encoding="UTF-8"?>
<svg id="Layer_1" xmlns="http://www.w3.org/2000/svg" version="1.1" viewBox="0 0 1024 1024">
  <!-- Generator: Adobe Illustrator 29.4.0, SVG Export Plug-In . SVG Version: 2.1.0 Build 152)  -->
  <defs>
    <style>
      .st0 {
        fill: #fff;
      }
    </style>
  </defs>
  <path class="st0" d="M403.63,325.21c3.51.5,6.26,1.55,8.26,3.17-1.98-1.62-4.74-2.7-8.26-3.17ZM367.02,288.41v21.57c0,.15-.04.26-.11.35.09-.07.13-.19.13-.35v-21.55c0-.09-.02-.17-.06-.22.02.06.04.13.04.21ZM355.07,310.44v-22.5h-.02v22.52h11.5c.17,0,.28-.04.35-.13-.09.07-.21.11-.35.11h-11.48ZM355.05,400.18h.02v-59.98h-.02v59.98ZM476.01,339.77c-.04.06-.04.11-.04.19v22.5c0,.07,0,.13.04.19-.02-.06-.02-.11-.02-.19v-22.48c0-.07,0-.15.02-.21ZM534.27,259.42c-.32-.54-.65-1.06-1.04-1.55-.37-.48-.78-.95-1.23-1.4-.22-.22-.45-.45-.69-.65-4.05-3.58-10.38-5.37-19.02-5.37h-60.69c-5.07,0-9.34.62-12.83,1.86-.71.24-1.38.52-2.01.8-1.58.75-2.98,1.64-4.18,2.7-.22.21-.47.43-.69.65-.47.45-.86.91-1.23,1.4-.58.75-1.08,1.53-1.51,2.39-1.29,2.55-1.92,5.61-1.92,9.17v27.65h48.74v-8.67c0-.07,0-.13.04-.19,0,0-.02,0,0-.02.02-.06.04-.11.09-.13.07-.09.19-.13.34-.13h11.02c.15,0,.26.04.34.13.06.04.07.07.09.13.02.06.04.13.04.21v18.29h-36.32c-3.04,0-5.82.22-8.3.65-.41.07-.8.15-1.21.24-1.17.24-2.27.54-3.32.89-.09.04-.19.07-.28.11-.47.15-.93.34-1.36.52-2.07.89-3.82,2.05-5.24,3.43-.43.43-.86.89-1.23,1.36-.58.73-1.08,1.51-1.51,2.33-1.29,2.5-1.92,5.48-1.92,8.95v56.47c0,5.41,1.55,9.62,4.66,12.66.43.43.91.84,1.42,1.23.52.39,1.06.75,1.64,1.1.86.48,1.77.93,2.76,1.34l1.06.39c3.49,1.19,7.76,1.79,12.83,1.79h85.05v-130.75c0-3.95-.8-7.29-2.39-10.01ZM476.42,362.93c-.13,0-.22-.02-.28-.07-.02,0-.04-.04-.04-.04-.04-.02-.06-.06-.06-.09-.04-.02-.04-.04-.04-.07-.02-.06-.02-.11-.02-.19v-22.48c0-.07,0-.15.02-.21t0-.02c.06-.11.13-.19.22-.22.06-.04.13-.04.21-.04h11.48v23.44h-11.5ZM839.4,540.55v-74.74c0-12.66-8.15-18.98-24.39-18.98h-60.69c-16.24,0-24.39,6.32-24.39,18.98v112.24c0,12.34,8.15,18.53,24.39,18.53h60.69c16.24,0,24.39-6.19,24.39-18.53v-28.12h-48.75v8.91c0,.3-.17.47-.47.47h-11.02c-.3,0-.47-.17-.47-.47v-18.29h60.7ZM778.7,484.77c0-.28.17-.45.47-.45h11.02c.3,0,.47.17.47.45v20.86h-11.95v-20.86ZM730.24,212.95v37.49h-36.32c-16.28,0-24.39,6.34-24.39,19v112.22c0,6.25,1.96,10.91,5.87,13.96,3.9,3.04,10.05,4.57,18.51,4.57h85.04v-187.24h-48.72ZM730.24,362.93h-11.48c-.34,0-.48-.13-.48-.47v-74.04c0-.32.15-.48.48-.48h11.48v74.99ZM658.44,409.54c-.26,0-.39-.17-.39-.43v-139.66c0-12.66-8.13-19-24.37-19s-28.02,3.23-36.32,9.64v-9.64h-48.74v149.75h48.74v-111.77c0-.32.15-.48.48-.48h11c.32,0,.45.17.45.48v130.51c0,12.34,8.2,18.51,24.61,18.51h35.63v159.05h48.74v-186.96h-59.83ZM633.44,446.83h-60.69c-16.24,0-24.39,6.32-24.39,18.98v112.24c0,12.34,8.15,18.49,24.39,18.49h60.69c16.26,0,24.39-6.15,24.39-18.49v-112.24c0-12.66-8.13-18.98-24.39-18.98ZM609.07,558.82c0,.32-.17.48-.45.48h-11.04c-.34,0-.47-.17-.47-.48v-74.05c0-.32.13-.45.47-.45h11.04c.28,0,.45.13.45.45v74.05ZM524.71,521.55c7.98-.91,11.95-4.98,11.95-12.17v-43.57c0-12.66-8.04-18.98-24.11-18.98h-85.09v149.71h48.75v-59.98h11.47c.32,0,.48.15.48.48v59.49h48.72v-62.55c0-7.2-4.06-11.34-12.17-12.44ZM488.17,506.32c0,.32-.17.48-.48.48h-11.47v-22.48h11.47c.32,0,.48.13.48.45v21.55ZM209.08,250.45c-16.26,0-24.37,6.32-24.37,18.98v112.24c0,12.34,8.11,18.53,24.37,18.53h36.32v8.91c0,.3-.15.45-.48.45h-60.2v37.27h85.04c16.24,0,24.39-6.19,24.39-18.51v-177.86h-85.05ZM245.4,362.93h-11.48c-.32,0-.48-.17-.48-.47v-74.04c0-.32.17-.48.48-.48h11.48v74.99ZM839.4,540.55v-74.74c0-12.66-8.15-18.98-24.39-18.98h-60.69c-16.24,0-24.39,6.32-24.39,18.98v112.24c0,12.34,8.15,18.53,24.39,18.53h60.69c16.24,0,24.39-6.19,24.39-18.53v-28.12h-48.75v8.91c0,.3-.17.47-.47.47h-11.02c-.3,0-.47-.17-.47-.47v-18.29h60.7ZM778.7,484.77c0-.28.17-.45.47-.45h11.02c.3,0,.47.17.47.45v20.86h-11.95v-20.86ZM730.24,212.95v37.49h-36.32c-16.28,0-24.39,6.34-24.39,19v112.22c0,6.25,1.96,10.91,5.87,13.96,3.9,3.04,10.05,4.57,18.51,4.57h85.04v-187.24h-48.72ZM730.24,362.93h-11.48c-.34,0-.48-.13-.48-.47v-74.04c0-.32.15-.48.48-.48h11.48v74.99ZM658.44,409.54c-.26,0-.39-.17-.39-.43v-139.66c0-12.66-8.13-19-24.37-19s-28.02,3.23-36.32,9.64v-9.64h-48.74v149.75h48.74v-111.77c0-.32.15-.48.48-.48h11c.32,0,.45.17.45.48v130.51c0,12.34,8.2,18.51,24.61,18.51h35.63v159.05h48.74v-186.96h-59.83ZM633.44,446.83h-60.69c-16.24,0-24.39,6.32-24.39,18.98v112.24c0,12.34,8.15,18.49,24.39,18.49h60.69c16.26,0,24.39-6.15,24.39-18.49v-112.24c0-12.66-8.13-18.98-24.39-18.98ZM609.07,558.82c0,.32-.17.48-.45.48h-11.04c-.34,0-.47-.17-.47-.48v-74.05c0-.32.13-.45.47-.45h11.04c.28,0,.45.13.45.45v74.05ZM524.71,521.55c7.98-.91,11.95-4.98,11.95-12.17v-43.57c0-12.66-8.04-18.98-24.11-18.98h-85.09v149.71h48.75v-59.98h11.47c.32,0,.48.15.48.48v59.49h48.72v-62.55c0-7.2-4.06-11.34-12.17-12.44ZM488.17,506.32c0,.32-.17.48-.48.48h-11.47v-22.48h11.47c.32,0,.48.13.48.45v21.55ZM487.92,339.49v23.44h.02v-23.44h-.02ZM534.27,259.42c-.32-.54-.65-1.04-1.04-1.55-.37-.48-.78-.95-1.23-1.4-.22-.22-.45-.45-.69-.65-4.05-3.58-10.38-5.37-19.02-5.37h-60.69c-5.07,0-9.34.62-12.83,1.86-.71.24-1.38.52-2.01.8-1.58.75-2.98,1.64-4.18,2.7-.22.21-.47.43-.69.65-.43.45-.86.91-1.23,1.4-.56.75-1.06,1.53-1.51,2.39-1.29,2.55-1.92,5.61-1.92,9.17v27.65h48.75v-8.65c0-.07,0-.15.02-.21,0,0-.02,0,0-.02.04-.06.06-.09.09-.13.07-.09.19-.13.34-.13h11.02c.15,0,.26.04.34.13.06,0,.09.06.09.13.04.06.06.13.06.22v18.25h-36.32c-3.06,0-5.84.22-8.32.67-.41.07-.8.15-1.21.24-1.17.24-2.29.54-3.32.89-.09.04-.19.07-.28.11-.47.15-.93.34-1.36.52-2.07.89-3.82,2.05-5.24,3.43-.43.43-.86.89-1.23,1.36-.56.73-1.06,1.49-1.51,2.33-1.29,2.5-1.92,5.48-1.92,8.95v56.47c0,5.41,1.55,9.62,4.66,12.66.43.43.91.84,1.42,1.23.52.39,1.06.75,1.64,1.1.86.5,1.77.95,2.76,1.34l1.06.39c3.49,1.21,7.77,1.81,12.85,1.81h85.04v-130.77c0-3.95-.8-7.29-2.39-10.01ZM475.99,362.46v-22.48c0-.07,0-.15.02-.21t0-.02c.06-.11.13-.19.22-.22.06-.04.13-.04.21-.04h11.48v23.44h-11.5c-.13,0-.22-.02-.28-.07-.02,0-.04-.04-.04-.04-.04-.02-.06-.06-.06-.09-.04-.02-.04-.04-.04-.07-.02-.06-.02-.11-.02-.19ZM366.98,288.2c.02.06.04.13.04.21v21.57c0,.15-.04.26-.11.35.09-.07.13-.19.13-.35v-21.55c0-.09-.02-.17-.06-.22ZM355.07,310.44v-22.5h-.02v22.52h11.5c.17,0,.28-.04.35-.13-.09.07-.21.11-.35.11h-11.48ZM414.35,262.03c.76,2.16,1.16,4.64,1.16,7.4v43.59c0,6.73-3.49,10.72-10.48,11.97,7.01-1.25,10.5-5.2,10.5-11.95v-43.59c0-2.78-.39-5.24-1.17-7.42ZM403.63,325.21c.47-.07.93-.13,1.38-.22-.47.07-.95.15-1.45.21.02,0,.06,0,.07.02ZM367.02,288.41v21.57c0,.15-.04.26-.11.35.09-.07.13-.19.13-.35v-21.55c0-.09-.02-.17-.06-.22.02.06.04.13.04.21ZM355.07,310.44v-22.5h-.02v22.52h11.5c.17,0,.28-.04.35-.13-.09.07-.21.11-.35.11h-11.48ZM306.33,400.2h48.72v-.02h-48.72v.02ZM209.08,250.45c-16.26,0-24.37,6.32-24.37,18.98v112.24c0,12.34,8.11,18.53,24.37,18.53h36.32v8.91c0,.3-.15.45-.48.45h-60.2v37.27h85.04c16.24,0,24.39-6.19,24.39-18.51v-177.86h-85.05ZM245.4,362.93h-11.48c-.32,0-.48-.17-.48-.47v-74.04c0-.32.17-.48.48-.48h11.48v74.99ZM609.69,613.75v112.48h-11.45c-.34,0-.48-.17-.48-.48v-111.99h-48.74v131.24c0,12.32,8.11,18.48,24.35,18.48h36.32v8.91c0,.34-.13.47-.45.47h-60.22v37.27h85.05c16.24,0,24.37-6.15,24.37-18.53v-177.83h-48.75ZM513.17,613.73h-60.7c-16.24,0-24.37,6.34-24.37,18.96v27.67h48.75v-8.65c0-.34.13-.48.45-.48h11c.32,0,.48.15.48.48v18.25h-36.32c-16.24,0-24.37,6.19-24.37,18.51v56.47c0,12.34,8.13,18.51,24.37,18.51h85.04v-130.77c0-12.62-8.09-18.96-24.33-18.96ZM488.78,726.19h-11.48c-.32,0-.45-.15-.45-.45v-22.48c0-.34.13-.48.45-.48h11.48v23.42ZM367.61,613.73v149.73h48.75v-149.73h-48.75ZM331.11,613.75h-85.07v196.36h48.75v-46.65h36.32c8.43,0,14.58-1.49,18.51-4.55,3.88-3.06,5.85-7.68,5.85-13.93v-112.26c0-12.66-8.13-18.98-24.37-18.98ZM306.72,725.74c0,.32-.17.48-.45.48h-11.48v-74.99h11.48c.28,0,.45.13.45.47v74.04ZM609.69,613.75v112.48h-11.45c-.34,0-.48-.17-.48-.48v-111.99h-48.74v131.24c0,12.32,8.11,18.48,24.35,18.48h36.32v8.91c0,.34-.13.47-.45.47h-60.22v37.27h85.05c16.24,0,24.37-6.15,24.37-18.53v-177.83h-48.75ZM513.17,613.73h-60.7c-16.24,0-24.37,6.34-24.37,18.96v27.67h48.75v-8.65c0-.34.13-.48.45-.48h11c.32,0,.48.15.48.48v18.25h-36.32c-16.24,0-24.37,6.19-24.37,18.51v56.47c0,12.34,8.13,18.51,24.37,18.51h85.04v-130.77c0-12.62-8.09-18.96-24.33-18.96ZM488.78,726.19h-11.48c-.32,0-.45-.15-.45-.45v-22.48c0-.34.13-.48.45-.48h11.48v23.42ZM367.61,613.73v149.73h48.75v-149.73h-48.75ZM331.11,613.75h-85.07v196.36h48.75v-46.65h36.32c8.43,0,14.58-1.49,18.51-4.55,3.88-3.06,5.85-7.68,5.85-13.93v-112.26c0-12.66-8.13-18.98-24.37-18.98ZM306.72,725.74c0,.32-.17.48-.45.48h-11.48v-74.99h11.48c.28,0,.45.13.45.47v74.04ZM331.11,613.75h-85.07v196.36h48.75v-46.65h36.32c8.43,0,14.58-1.49,18.51-4.55,3.88-3.06,5.85-7.68,5.85-13.93v-112.26c0-12.66-8.13-18.98-24.37-18.98ZM306.72,725.74c0,.32-.17.48-.45.48h-11.48v-74.99h11.48c.28,0,.45.13.45.47v74.04ZM513.17,613.73h-60.7c-16.24,0-24.37,6.34-24.37,18.96v27.67h48.75v-8.65c0-.34.13-.48.45-.48h11c.32,0,.48.15.48.48v18.25h-36.32c-16.24,0-24.37,6.19-24.37,18.51v56.47c0,12.34,8.13,18.51,24.37,18.51h85.04v-130.77c0-12.62-8.09-18.96-24.33-18.96ZM488.78,726.19h-11.48c-.32,0-.45-.15-.45-.45v-22.48c0-.34.13-.48.45-.48h11.48v23.42ZM367.61,613.73v149.73h48.75v-149.73h-48.75ZM609.69,613.75v112.48h-11.45c-.34,0-.48-.17-.48-.48v-111.99h-48.74v131.24c0,12.32,8.11,18.48,24.35,18.48h36.32v8.91c0,.34-.13.47-.45.47h-60.22v37.27h85.05c16.24,0,24.37-6.15,24.37-18.53v-177.83h-48.75ZM209.08,250.45c-16.26,0-24.37,6.32-24.37,18.98v112.24c0,12.34,8.11,18.53,24.37,18.53h36.32v8.91c0,.3-.15.45-.48.45h-60.2v37.27h85.04c16.24,0,24.39-6.19,24.39-18.51v-177.86h-85.05ZM245.4,362.93h-11.48c-.32,0-.48-.17-.48-.47v-74.04c0-.32.17-.48.48-.48h11.48v74.99ZM487.92,339.49v23.44h.02v-23.44h-.02ZM534.27,259.42c-.32-.54-.65-1.04-1.04-1.55-.37-.48-.78-.95-1.23-1.4-.22-.22-.45-.45-.69-.65-4.05-3.58-10.38-5.37-19.02-5.37h-60.69c-5.07,0-9.34.62-12.83,1.86-.71.24-1.38.52-2.01.8-1.58.75-2.98,1.64-4.18,2.7-.22.21-.47.43-.69.65-.43.45-.86.91-1.23,1.4-.56.75-1.06,1.53-1.51,2.39-1.29,2.55-1.92,5.61-1.92,9.17v27.65h48.75v-8.65c0-.07,0-.15.02-.21,0,0-.02,0,0-.02.04-.06.06-.09.09-.13.07-.09.19-.13.34-.13h11.02c.15,0,.26.04.34.13.06,0,.09.06.09.13.04.06.06.13.06.22v18.25h-36.32c-3.06,0-5.84.22-8.32.67-.41.07-.8.15-1.21.24-1.17.24-2.29.54-3.32.89-.09.04-.19.07-.28.11-.47.15-.93.34-1.36.52-2.07.89-3.82,2.05-5.24,3.43-.43.43-.86.89-1.23,1.36-.56.73-1.06,1.49-1.51,2.33-1.29,2.5-1.92,5.48-1.92,8.95v56.47c0,5.41,1.55,9.62,4.66,12.66.43.43.91.84,1.42,1.23.52.39,1.06.75,1.64,1.1.86.5,1.77.95,2.76,1.34l1.06.39c3.49,1.21,7.77,1.81,12.85,1.81h85.04v-130.77c0-3.95-.8-7.29-2.39-10.01ZM475.99,362.46v-22.48c0-.07,0-.15.02-.21t0-.02c.06-.11.13-.19.22-.22.06-.04.13-.04.21-.04h11.48v23.44h-11.5c-.13,0-.22-.02-.28-.07-.02,0-.04-.04-.04-.04-.04-.02-.06-.06-.06-.09-.04-.02-.04-.04-.04-.07-.02-.06-.02-.11-.02-.19ZM366.98,288.2c.02.06.04.13.04.21v21.57c0,.15-.04.26-.11.35.09-.07.13-.19.13-.35v-21.55c0-.09-.02-.17-.06-.22ZM355.07,310.44v-22.5h-.02v22.52h11.5c.17,0,.28-.04.35-.13-.09.07-.21.11-.35.11h-11.48ZM414.35,262.03c.76,2.16,1.16,4.64,1.16,7.4v43.59c0,6.73-3.49,10.72-10.48,11.97,7.01-1.25,10.5-5.2,10.5-11.95v-43.59c0-2.78-.39-5.24-1.17-7.42ZM403.63,325.21c.47-.07.93-.13,1.38-.22-.47.07-.95.15-1.45.21.02,0,.06,0,.07.02ZM367.02,288.41v21.57c0,.15-.04.26-.11.35.09-.07.13-.19.13-.35v-21.55c0-.09-.02-.17-.06-.22.02.06.04.13.04.21ZM355.07,310.44v-22.5h-.02v22.52h11.5c.17,0,.28-.04.35-.13-.09.07-.21.11-.35.11h-11.48ZM306.33,400.2h48.72v-.02h-48.72v.02ZM730.24,212.95v37.49h-36.32c-16.28,0-24.39,6.34-24.39,19v112.22c0,6.25,1.96,10.91,5.87,13.96,3.9,3.04,10.05,4.57,18.51,4.57h85.04v-187.24h-48.72ZM730.24,362.93h-11.48c-.34,0-.48-.13-.48-.47v-74.04c0-.32.15-.48.48-.48h11.48v74.99ZM658.44,409.54c-.26,0-.39-.17-.39-.43v-139.66c0-12.66-8.13-19-24.37-19s-28.02,3.23-36.32,9.64v-9.64h-48.74v149.75h48.74v-111.77c0-.32.15-.48.48-.48h11c.32,0,.45.17.45.48v130.51c0,12.34,8.2,18.51,24.61,18.51h35.63v159.05h48.74v-186.96h-59.83ZM524.71,521.55c7.98-.91,11.95-4.98,11.95-12.17v-43.57c0-12.66-8.04-18.98-24.11-18.98h-85.09v149.71h48.75v-59.98h11.47c.32,0,.48.15.48.48v59.49h48.72v-62.55c0-7.2-4.06-11.34-12.17-12.44ZM488.17,506.32c0,.32-.17.48-.48.48h-11.47v-22.48h11.47c.32,0,.48.13.48.45v21.55ZM633.44,446.83h-60.69c-16.24,0-24.39,6.32-24.39,18.98v112.24c0,12.34,8.15,18.49,24.39,18.49h60.69c16.26,0,24.39-6.15,24.39-18.49v-112.24c0-12.66-8.13-18.98-24.39-18.98ZM609.07,558.82c0,.32-.17.48-.45.48h-11.04c-.34,0-.47-.17-.47-.48v-74.05c0-.32.13-.45.47-.45h11.04c.28,0,.45.13.45.45v74.05ZM839.4,540.55v-74.74c0-12.66-8.15-18.98-24.39-18.98h-60.69c-16.24,0-24.39,6.32-24.39,18.98v112.24c0,12.34,8.15,18.53,24.39,18.53h60.69c16.24,0,24.39-6.19,24.39-18.53v-28.12h-48.75v8.91c0,.3-.17.47-.47.47h-11.02c-.3,0-.47-.17-.47-.47v-18.29h60.7ZM778.7,484.77c0-.28.17-.45.47-.45h11.02c.3,0,.47.17.47.45v20.86h-11.95v-20.86Z"/>
  <path class="st0" d="M416.22,409.55c-.32,0-.46-.16-.46-.46v-71.48c0-4.04-1.3-7.12-3.86-9.22-2-1.64-4.76-2.68-8.26-3.18-.02-.02-.06-.02-.08-.02.5-.06.98-.12,1.46-.2h.02c6.98-1.26,10.48-5.24,10.48-11.98v-43.58c0-2.76-.4-5.24-1.16-7.4-.38-1.02-.84-2.02-1.38-2.92-.36-.56-.74-1.12-1.18-1.64-.28-.34-.58-.68-.9-1-.22-.22-.44-.44-.68-.66-4.02-3.58-10.3-5.36-18.84-5.36h-85.04v149.72h48.7v-59.96h11.52c.14,0,.26.02.34.1.08.08.12.18.12.36v78.26c0,12.34,8.1,18.52,24.36,18.52h205.98v-27.9h-181.14ZM367.04,309.97c0,.18-.04.28-.14.36-.06.1-.18.14-.34.14h-11.52v-22.52h11.52c.22,0,.36.08.42.26.04.04.06.12.06.22v21.54Z"/>
</svg>