<?xml version="1.0" encoding="UTF-8"?>
<svg id="Layer_1" xmlns="http://www.w3.org/2000/svg" version="1.1" viewBox="0 0 3765.23 534.77">
  <!-- Generator: Adobe Illustrator 29.4.0, SVG Export Plug-In . SVG Version: 2.1.0 Build 152)  -->
  <defs>
    <style>
      .st0 {
        fill: #36489e;
      }
    </style>
  </defs>
  <path class="st0" d="M332.57,205.62l-25.91,165.13c-12.31,14.33-27.75,25.5-46.31,33.49-18.56,7.99-38,13.6-58.31,16.81-20.31,3.22-39.38,4.64-57.2,4.27-27.94-.37-51.69-5.88-71.26-16.54-19.57-10.66-35.15-25.09-46.73-43.28-11.58-18.19-19.39-38.87-23.43-62.02-4.04-23.16-4.51-47.42-1.38-72.78l3.03-22.05c3.49-26.09,10.34-50.95,20.54-74.57,10.2-23.61,23.47-44.61,39.84-62.99,16.35-18.38,35.79-32.8,58.3-43.28,22.51-10.48,48.01-15.44,76.5-14.89,29.59.37,54.72,5.93,75.4,16.68,20.68,10.75,36.71,26.24,48.11,46.45,11.39,20.22,18.01,44.93,19.85,74.16l-90.14-.28c-.92-12.13-3.17-22.83-6.76-32.12-3.58-9.28-9.23-16.58-16.95-21.92-7.72-5.33-18.29-8.27-31.7-8.82-16.18-.73-29.96,2.62-41.35,10.06-11.4,7.44-20.91,17.32-28.53,29.63-7.63,12.32-13.6,25.64-17.92,39.97-4.32,14.33-7.4,28.03-9.23,41.08l-3.03,23.16c-1.47,12.31-2.34,25.36-2.62,39.15-.28,13.78,1.24,26.74,4.55,38.87,3.31,12.13,9.33,22.05,18.06,29.77,8.72,7.72,21.27,11.76,37.63,12.13,7.17.19,14.1-.28,20.81-1.38,6.71-1.1,13.23-2.89,19.57-5.38s12.45-5.65,18.33-9.51l12.41-62.58h-65.33l11.58-66.44h159.61Z"/>
  <path class="st0" d="M474.82,200.66l-38.04,219.43h-90.7l51.83-298.28h84.35l-7.44,78.84ZM572.41,119.33l-11.85,86.56c-4.78-.73-9.56-1.38-14.33-1.93-4.78-.55-9.65-.92-14.61-1.1-10.11-.18-19.25.97-27.43,3.45-8.18,2.48-15.26,6.25-21.23,11.3-5.98,5.06-10.89,11.35-14.75,18.88-3.86,7.54-6.71,16.26-8.55,26.19l-15.16-11.03c1.84-13.96,4.83-28.81,8.96-44.52,4.13-15.71,9.96-30.55,17.5-44.52,7.53-13.96,17.28-25.31,29.22-34.05,11.95-8.73,26.65-13.09,44.11-13.09,4.77,0,9.46.37,14.06,1.1,4.59.74,9.28,1.65,14.06,2.76Z"/>
  <path class="st0" d="M738.09,237.87l-8.27,49.62-35.56-.28c-6.99.19-13.65,1.33-19.99,3.45-6.34,2.12-11.99,5.1-16.95,8.96-4.96,3.86-9.05,8.64-12.27,14.33-3.22,5.7-5.29,12.23-6.2,19.57-.74,4.96-.33,9.42,1.24,13.37,1.56,3.96,4.04,7.13,7.44,9.51,3.4,2.39,7.67,3.68,12.82,3.86,7.9.19,15.53-1.28,22.88-4.41,7.35-3.12,13.74-7.53,19.16-13.23,5.42-5.69,9.14-12.31,11.17-19.85l15.99,38.87c-4.78,9.56-10.24,18.29-16.4,26.19-6.16,7.9-13.05,14.75-20.67,20.54-7.63,5.79-16.13,10.25-25.5,13.37-9.37,3.12-19.76,4.59-31.15,4.41-16.36-.37-31.43-4.32-45.21-11.85-13.78-7.53-24.72-17.82-32.8-30.87-8.09-13.05-11.85-28.12-11.3-45.21.74-19.85,5.6-36.29,14.61-49.34,9-13.05,20.72-23.3,35.15-30.74,14.43-7.44,30.14-12.72,47.14-15.85,17-3.12,33.86-4.69,50.59-4.69l44.11.28ZM708.59,345.11l19.3-124.05c.73-6.62.69-12.96-.14-19.02-.82-6.07-3.13-11.07-6.89-15.02-3.77-3.95-9.61-6.02-17.51-6.2-7.17-.18-13.23,1.1-18.19,3.86-4.96,2.76-8.91,6.62-11.85,11.58-2.94,4.96-5.05,10.66-6.34,17.09l-90.97.55c.73-17.27,5.33-32.16,13.78-44.66,8.45-12.5,19.3-22.69,32.53-30.6,13.23-7.9,27.7-13.69,43.42-17.37,15.71-3.67,31.19-5.33,46.45-4.96,20.95.37,39.93,4.73,56.93,13.09,17,8.37,30.14,20.4,39.42,36.11,9.28,15.71,12.82,34.78,10.61,57.2l-19.57,122.4c-1.65,11.03-3.13,22.74-4.41,35.15-1.29,12.41.55,23.94,5.51,34.6l-.28,5.24-88.49.28c-4.04-11.95-6.06-24.35-6.06-37.22s.91-25.54,2.76-38.04Z"/>
  <path class="st0" d="M964.41,190.46l-39.97,229.63h-90.7l51.83-298.28h84.63l-5.79,68.64ZM941.81,260.75l-18.75,1.1c1.66-17.82,5.33-35.51,11.03-53.07,5.69-17.55,13.65-33.4,23.85-47.55,10.2-14.15,22.88-25.32,38.04-33.49,15.16-8.18,33.03-12.08,53.62-11.72,16.72.55,30.46,4.14,41.21,10.75,10.75,6.62,18.98,15.39,24.67,26.33,5.7,10.94,9.33,23.25,10.89,36.94,1.56,13.69,1.61,27.8.14,42.32l-31.42,187.73h-91.25l31.7-188.56c.91-8.64.69-16.26-.69-22.88-1.38-6.62-4.5-11.76-9.37-15.44-4.87-3.67-12.09-5.6-21.64-5.79-10.66-.18-19.62,1.84-26.88,6.06-7.26,4.23-13.23,9.97-17.92,17.23-4.69,7.26-8.37,15.26-11.03,23.98-2.67,8.73-4.73,17.42-6.2,26.05Z"/>
  <path class="st0" d="M1158.76,276.74l.55-6.06c2.21-18.2,6.34-36.57,12.41-55.14,6.06-18.56,14.38-35.47,24.95-50.72,10.57-15.25,23.71-27.38,39.42-36.39,15.71-9,34.41-13.14,56.1-12.4,18.38.74,33.45,6.25,45.21,16.54,11.76,10.3,20.86,23.3,27.29,39.01,6.43,15.71,10.84,32.21,13.23,49.48,2.39,17.28,3.4,33.18,3.03,47.69l-.82,7.44c-2.76,15.62-7.49,32.21-14.2,49.76-6.71,17.55-15.44,34-26.19,49.34-10.75,15.35-23.48,27.75-38.18,37.22-14.7,9.46-31.34,13.92-49.9,13.37-20.22-.55-36.76-5.42-49.62-14.61-12.87-9.19-22.75-21.13-29.64-35.84-6.89-14.7-11.3-30.69-13.23-47.97-1.93-17.27-2.07-34.18-.42-50.72ZM1250.28,270.4l-.55,5.79c-.55,6.62-1.01,14.24-1.38,22.88-.37,8.64.14,17.09,1.52,25.36,1.38,8.27,4.41,15.21,9.1,20.81,4.69,5.61,11.71,8.68,21.09,9.23,13.6.55,24.76-2.66,33.49-9.65,8.73-6.98,15.44-15.94,20.13-26.88,4.68-10.93,7.67-22.19,8.96-33.77l2.48-22.05c.92-7.53,1.42-15.53,1.52-23.98.09-8.45-.87-16.45-2.9-23.98-2.02-7.53-5.7-13.78-11.03-18.75-5.33-4.96-13.05-7.53-23.15-7.72-10.66-.36-19.62,2.12-26.88,7.44-7.26,5.33-13.05,12.27-17.37,20.81-4.32,8.55-7.63,17.64-9.92,27.29-2.3,9.65-4,18.7-5.1,27.15ZM1323.61,346.49L1384.26-3.34h91.25l-73.33,423.43h-81.32l2.76-73.6Z"/>
  <path class="st0" d="M1665.45,18.72l148.59.27c24.44.37,46.95,4.78,67.54,13.23,20.58,8.46,36.75,21.37,48.52,38.73,11.76,17.37,16.72,39.56,14.89,66.57-1.66,22.24-6.62,40.94-14.89,56.1-8.27,15.16-19.48,28.08-33.63,38.73-14.16,10.66-30.79,20.12-49.9,28.39l-34.18,17.64h-133.42l12.68-74.71,90.69.55c12.13-.18,22.93-2.57,32.39-7.17,9.47-4.59,17.23-11.12,23.29-19.57,6.07-8.45,9.93-18.75,11.58-30.87,1.47-9.92,1.1-18.79-1.1-26.6-2.21-7.81-6.44-14.01-12.68-18.61-6.25-4.59-14.52-7.17-24.81-7.72l-63.96-.28-56.79,326.67h-94.28l69.47-401.38ZM1811.28,420.09l-55.41-177.53,95.66-.55,60.37,173.4v4.69h-100.62Z"/>
  <path class="st0" d="M1963.72,275.64l.55-5.79c2.39-21.5,7.62-41.63,15.71-60.37,8.08-18.75,18.88-35.19,32.39-49.35,13.51-14.15,29.45-25.13,47.83-32.94,18.38-7.81,38.96-11.44,61.75-10.89,21.87.37,40.8,4.6,56.79,12.68,15.99,8.09,29.13,19.07,39.42,32.94,10.29,13.88,17.6,29.87,21.92,47.97,4.32,18.11,5.56,37.35,3.72,57.75l-.55,6.07c-2.39,21.32-7.72,41.26-15.99,59.82-8.27,18.56-19.16,34.83-32.67,48.79-13.51,13.97-29.45,24.81-47.83,32.53-18.38,7.72-38.87,11.3-61.48,10.75-21.5-.37-40.3-4.55-56.37-12.54-16.08-8-29.27-18.84-39.56-32.53-10.29-13.69-17.6-29.5-21.92-47.41-4.32-17.92-5.56-37.08-3.72-57.48ZM2054.97,269.85l-.55,5.79c-.55,7.54-.87,15.76-.96,24.67-.09,8.92.87,17.46,2.9,25.64,2.02,8.18,5.74,14.89,11.16,20.12s13.28,8.04,23.57,8.41c11.03.37,20.26-1.93,27.7-6.89,7.44-4.96,13.46-11.58,18.05-19.85,4.59-8.27,8.13-17.18,10.61-26.74,2.48-9.55,4.18-18.75,5.1-27.57l.55-5.79c.55-7.35.87-15.57.96-24.67.09-9.1-.87-17.78-2.9-26.05-2.02-8.27-5.79-15.12-11.3-20.54-5.51-5.42-13.42-8.31-23.71-8.68-11.03-.36-20.26,2.02-27.7,7.17-7.44,5.15-13.46,11.9-18.06,20.26-4.6,8.36-8.09,17.37-10.47,27.01-2.39,9.65-4.04,18.88-4.96,27.7Z"/>
  <path class="st0" d="M2425.75-3.34l-73.33,423.43h-90.97L2334.78-3.34h90.97Z"/>
  <path class="st0" d="M2554.76,425.61c-20.58-.37-39.33-4.18-56.24-11.44s-31.24-17.32-43-30.19c-11.76-12.86-20.45-27.98-26.05-45.35-5.61-17.37-7.67-36.34-6.2-56.93l1.1-10.75c2.21-21.68,7.35-41.94,15.44-60.79,8.09-18.83,18.93-35.38,32.53-49.62,13.6-14.24,29.64-25.31,48.11-33.22,18.47-7.9,39.19-11.58,62.16-11.03,20.76.37,38.73,4.51,53.89,12.4,15.16,7.9,27.52,18.61,37.08,32.12,9.55,13.51,16.22,28.94,19.99,46.31,3.77,17.37,4.64,35.79,2.62,55.27l-5.24,37.77h-237.08l9.37-58.17,146.1.28,1.66-8c1.28-8.64.92-16.45-1.1-23.43-2.02-6.98-5.79-12.54-11.3-16.68-5.51-4.14-12.95-6.38-22.33-6.75-11.4-.18-20.81,2.3-28.26,7.44-7.44,5.15-13.42,11.95-17.92,20.4-4.51,8.45-7.95,17.6-10.33,27.43-2.39,9.83-4.14,19.25-5.24,28.25l-1.1,10.48c-.74,9.01-.46,17.74.83,26.19,1.29,8.45,3.9,16.08,7.86,22.88,3.95,6.8,9.33,12.27,16.13,16.4,6.8,4.14,15.34,6.39,25.64,6.76,13.78.37,26.64-2.21,38.59-7.72,11.95-5.51,22.7-13.05,32.26-22.61l37.76,50.17c-8.27,12.5-18.93,22.56-31.98,30.19-13.05,7.63-27.06,13.23-42.04,16.82-14.98,3.58-29.55,5.28-43.69,5.1Z"/>
  <path class="st0" d="M2838.15,184.12l-60.92,350.65h-90.7l71.68-412.95h84.08l-4.14,62.3ZM3000.79,265.72l-.82,5.79c-2.03,18.01-6.11,36.21-12.27,54.58-6.16,18.38-14.52,35.2-25.09,50.45-10.57,15.25-23.66,27.43-39.28,36.53-15.62,9.1-34,13.37-55.13,12.82-18.56-.55-33.73-5.75-45.49-15.58-11.76-9.83-20.91-22.33-27.43-37.49-6.52-15.16-11.03-31.24-13.51-48.24-2.48-17-3.54-32.85-3.17-47.55l.83-7.99c2.76-16.17,7.35-33.26,13.78-51.28,6.43-18.01,14.89-34.78,25.36-50.31,10.48-15.53,23.06-28.12,37.77-37.77,14.7-9.65,31.79-14.2,51.27-13.65,20.4.55,37.12,5.38,50.17,14.47,13.05,9.1,22.97,20.95,29.77,35.56,6.8,14.61,11.12,30.65,12.95,48.1,1.84,17.46,1.93,34.65.28,51.55ZM2909.55,271.23l.55-5.79c.55-6.62,1.01-14.24,1.38-22.88.37-8.64-.14-17.09-1.52-25.36-1.38-8.27-4.41-15.2-9.1-20.81-4.69-5.6-11.81-8.59-21.37-8.96-11.21-.55-20.58,1.2-28.12,5.24-7.54,4.04-13.65,9.65-18.33,16.82-4.69,7.17-8.32,15.21-10.89,24.12-2.58,8.92-4.41,18.06-5.52,27.43l-2.48,22.61c-1.29,10.47-1.56,21.09-.83,31.84.73,10.75,3.9,19.81,9.51,27.15,5.6,7.35,15.11,11.21,28.53,11.58,10.66.19,19.52-2.39,26.6-7.72,7.07-5.33,12.77-12.31,17.09-20.95,4.32-8.64,7.58-17.78,9.79-27.43,2.21-9.65,3.77-18.61,4.69-26.88Z"/>
  <path class="st0" d="M3183.01-3.34l-73.33,423.43h-90.97L3092.04-3.34h90.97Z"/>
  <path class="st0" d="M3357.79,237.87l-8.27,49.62-35.56-.28c-6.99.19-13.65,1.33-19.99,3.45-6.34,2.12-11.99,5.1-16.95,8.96-4.96,3.86-9.06,8.64-12.27,14.33-3.22,5.7-5.28,12.23-6.2,19.57-.74,4.96-.33,9.42,1.24,13.37,1.56,3.96,4.04,7.13,7.44,9.51,3.4,2.39,7.67,3.68,12.82,3.86,7.9.19,15.53-1.28,22.88-4.41,7.34-3.12,13.73-7.53,19.16-13.23,5.42-5.69,9.14-12.31,11.16-19.85l15.99,38.87c-4.78,9.56-10.25,18.29-16.4,26.19-6.16,7.9-13.05,14.75-20.67,20.54-7.63,5.79-16.13,10.25-25.5,13.37-9.37,3.12-19.76,4.59-31.15,4.41-16.36-.37-31.42-4.32-45.21-11.85-13.79-7.53-24.72-17.82-32.81-30.87-8.09-13.05-11.85-28.12-11.3-45.21.74-19.85,5.61-36.29,14.61-49.34,9-13.05,20.72-23.3,35.15-30.74,14.43-7.44,30.14-12.72,47.14-15.85,17-3.12,33.86-4.69,50.59-4.69l44.11.28ZM3328.3,345.11l19.3-124.05c.73-6.62.69-12.96-.14-19.02-.83-6.07-3.13-11.07-6.89-15.02-3.77-3.95-9.61-6.02-17.51-6.2-7.17-.18-13.23,1.1-18.19,3.86-4.96,2.76-8.92,6.62-11.85,11.58-2.94,4.96-5.05,10.66-6.34,17.09l-90.97.55c.73-17.27,5.33-32.16,13.79-44.66,8.45-12.5,19.3-22.69,32.53-30.6,13.23-7.9,27.7-13.69,43.42-17.37,15.71-3.67,31.19-5.33,46.45-4.96,20.95.37,39.92,4.73,56.93,13.09,17,8.37,30.14,20.4,39.42,36.11,9.28,15.71,12.82,34.78,10.61,57.2l-19.57,122.4c-1.65,11.03-3.13,22.74-4.41,35.15-1.29,12.41.55,23.94,5.52,34.6l-.28,5.24-88.49.28c-4.04-11.95-6.07-24.35-6.07-37.22s.92-25.54,2.76-38.04Z"/>
  <path class="st0" d="M3546.62,380.67l118.54-258.85h100.07l-174.78,342.93c-5.33,11.39-11.35,21.78-18.05,31.15-6.71,9.37-14.29,17.46-22.75,24.26-8.45,6.8-18.01,12.03-28.67,15.71-10.66,3.67-22.7,5.51-36.11,5.51-6.99,0-13.78-.6-20.4-1.79-6.62-1.2-13.23-2.62-19.85-4.27l6.89-66.71c1.84.18,3.67.32,5.51.41,1.84.09,3.58.14,5.24.14,7.72,0,14.65-.78,20.81-2.34,6.15-1.56,11.67-4.27,16.54-8.13s9.14-9.19,12.82-15.99l34.18-62.03ZM3571.71,121.82l21.51,213.37-6.9,93.73h-58.99l-49.62-307.1h94Z"/>
</svg>